<?xml version="1.0" standalone="no"?>
<!DOCTYPE svg PUBLIC "-//W3C//DTD SVG 20010904//EN"
 "http://www.w3.org/TR/2001/REC-SVG-20010904/DTD/svg10.dtd">
<svg version="1.0" xmlns="http://www.w3.org/2000/svg"
 width="1920.000000pt" height="1080.000000pt" viewBox="0 0 1920.000000 1080.000000"
 preserveAspectRatio="xMidYMid meet">

<g transform="translate(0.000000,1080.000000) scale(0.100000,-0.100000)"
fill="#000000" stroke="none">
<path d="M5465 5938 c-81 -29 -124 -93 -133 -193 -23 -289 492 -773 935 -880
204 -49 378 34 391 189 23 278 -495 764 -935 877 -83 21 -209 24 -258 7z m244
-73 c30 -8 89 -28 132 -45 88 -36 79 -18 100 -203 6 -59 10 -110 7 -113 -3 -3
-114 75 -247 173 -212 156 -239 179 -224 190 23 18 164 16 232 -2z m-16 -267
c162 -120 255 -194 250 -201 -17 -30 -135 -177 -142 -177 -4 0 -41 29 -82 64
-131 112 -247 262 -288 371 -24 63 -29 151 -8 139 6 -4 128 -92 270 -196z
m457 45 c89 -63 167 -130 160 -135 -7 -6 -274 -56 -278 -52 -5 3 -32 223 -32
257 l0 29 38 -23 c20 -12 71 -46 112 -76z m295 -275 c84 -106 137 -211 143
-283 2 -30 1 -55 -2 -55 -6 0 -95 64 -426 309 l-75 55 135 27 c74 15 141 27
147 28 7 0 42 -36 78 -81z m-162 -205 c141 -103 257 -191 257 -195 0 -17 -78
-30 -149 -25 -122 9 -307 82 -460 181 l-71 46 71 95 c40 53 78 94 84 91 7 -2
128 -89 268 -193z"/>
<path d="M6900 5319 l0 -470 258 3 c288 5 323 11 430 84 112 77 163 186 170
360 8 217 -63 359 -220 440 -88 45 -154 54 -405 54 l-233 0 0 -471z m488 287
c92 -34 144 -100 162 -207 20 -120 -2 -225 -61 -293 -57 -65 -116 -86 -260
-93 l-119 -6 0 313 0 313 118 -6 c69 -3 135 -11 160 -21z"/>
<path d="M13330 5730 c0 -28 3 -30 35 -30 l36 0 -3 -116 c-2 -94 -6 -119 -19
-127 -25 -16 -68 0 -75 28 -5 21 -12 25 -40 25 -29 0 -34 -4 -34 -22 0 -39 36
-85 75 -98 51 -17 117 -5 146 26 23 24 24 33 27 185 l3 159 -75 0 -76 0 0 -30z"/>
<path d="M13560 5577 l0 -187 40 0 40 0 0 75 0 75 39 0 c48 0 68 -18 76 -68
13 -79 46 -108 94 -82 26 14 27 46 2 53 -13 3 -24 19 -31 45 -6 23 -15 44 -19
47 -5 3 4 18 20 34 23 23 29 38 29 71 0 85 -35 107 -185 117 l-105 6 0 -186z
m208 101 c19 -19 15 -66 -7 -78 -11 -5 -42 -10 -70 -10 l-51 0 0 50 0 50 58 0
c32 0 63 -5 70 -12z"/>
<path d="M8708 5718 l-88 -30 0 -323 c0 -343 3 -369 50 -433 47 -64 157 -95
274 -78 l46 7 0 77 0 77 -61 0 c-54 0 -63 3 -85 28 -23 27 -24 34 -24 183 l0
154 85 0 85 0 0 75 0 75 -85 0 -85 0 0 110 c0 82 -3 110 -12 109 -7 0 -52 -14
-100 -31z"/>
<path d="M12782 5719 l-93 -30 3 -327 c3 -316 4 -329 26 -377 30 -65 47 -83
107 -111 54 -26 170 -33 219 -14 25 9 26 13 26 84 l0 75 -53 -6 c-50 -5 -57
-3 -88 25 l-34 30 -3 156 -4 156 91 0 91 0 0 75 0 75 -90 0 -90 0 0 110 c0 61
-3 110 -7 109 -5 0 -50 -14 -101 -30z"/>
<path d="M8032 5531 c-76 -26 -122 -67 -162 -146 -34 -67 -35 -70 -35 -189 0
-117 1 -124 33 -188 56 -115 144 -164 275 -156 80 5 118 21 165 69 l32 33 0
-47 0 -47 95 0 95 0 0 335 0 335 -95 0 -95 0 0 -41 0 -41 -42 36 c-74 63 -170
80 -266 47z m228 -158 c50 -29 74 -87 74 -179 0 -62 -4 -88 -20 -115 -62 -106
-213 -106 -266 1 -13 24 -18 59 -18 113 0 92 23 147 73 177 40 25 118 26 157
3z"/>
<path d="M9295 5540 c-106 -27 -172 -92 -208 -205 -24 -77 -29 -136 -17 -211
27 -175 133 -274 291 -274 72 0 135 22 176 62 l33 32 0 -42 0 -42 100 0 100 0
0 335 0 335 -100 0 -100 0 0 -39 0 -39 -37 34 c-58 53 -155 75 -238 54z m216
-177 c44 -38 59 -80 59 -170 0 -126 -52 -193 -149 -193 -86 0 -143 57 -155
154 -10 80 10 154 54 199 35 35 42 37 98 37 51 0 65 -4 93 -27z"/>
<path d="M10135 5544 c-131 -34 -199 -83 -247 -181 -31 -64 -33 -74 -33 -173
0 -85 4 -114 22 -151 30 -66 86 -124 150 -156 67 -32 193 -43 282 -23 62 14
151 55 151 70 0 13 -40 113 -49 123 -4 4 -28 -4 -53 -18 -83 -46 -182 -46
-238 2 -47 39 -61 76 -62 158 0 89 27 147 82 177 51 28 150 21 219 -14 l52
-27 8 22 c5 12 17 42 27 66 17 44 17 44 -5 62 -56 45 -233 82 -306 63z"/>
<path d="M10770 5535 c-159 -45 -242 -157 -243 -330 -1 -111 23 -183 84 -250
74 -80 127 -100 269 -100 106 0 120 2 172 28 123 60 186 182 176 341 -7 109
-35 172 -104 235 -30 27 -74 56 -101 66 -69 24 -186 28 -253 10z m204 -176
c42 -36 56 -80 56 -169 -1 -129 -57 -194 -162 -187 -99 6 -141 64 -142 192 -1
137 45 195 156 195 50 0 62 -4 92 -31z"/>
<path d="M11632 5532 c-30 -11 -70 -36 -91 -56 -20 -20 -40 -33 -44 -30 -4 4
-7 25 -7 46 l0 38 -96 0 -97 0 7 -61 c3 -34 6 -185 6 -335 l0 -274 100 0 100
0 0 211 c0 236 6 262 65 299 47 29 116 27 152 -4 l28 -24 3 -241 3 -241 100 0
99 0 0 243 c0 259 -6 306 -50 367 -49 69 -178 97 -278 62z"/>
<path d="M12235 5537 c-27 -7 -61 -19 -75 -26 -141 -74 -153 -267 -21 -335 15
-8 81 -28 147 -45 86 -22 124 -36 137 -52 21 -27 21 -31 -2 -60 -38 -47 -200
-34 -303 24 -21 11 -40 19 -42 16 -2 -2 -15 -32 -29 -67 l-26 -62 24 -16 c59
-39 130 -57 241 -62 132 -5 204 11 260 61 45 38 64 81 64 141 0 116 -58 168
-232 207 -124 29 -148 42 -148 79 0 47 34 63 122 58 54 -3 87 -11 126 -31 30
-15 57 -27 62 -27 4 0 19 28 33 63 l25 62 -36 23 c-83 51 -233 73 -327 49z"/>
</g>
</svg>
